<svg width="76" height="51" viewBox="0 0 76 51" fill="none" xmlns="http://www.w3.org/2000/svg">
<path d="M71.2459 25.9909C72.2333 24.6196 73.3972 22.9977 74.3528 21.6442C76.7496 18.2455 76.5094 13.6641 73.7717 10.502C72.1026 8.57411 69.6581 7.46966 67.0652 7.46966H67.0563C64.3451 7.46966 61.7681 8.71994 60.0778 10.8363C57.356 7.54614 55.3672 5.06692 54.2774 3.605C52.5959 1.3481 49.9183 0 47.117 0H47.0887C43.6091 0 40.5199 1.96701 39.0257 5.13272C38.0489 7.20289 37.9182 9.5256 38.5823 11.6616C38.5258 11.7042 38.4693 11.7434 38.4128 11.7861C36.0848 10.0111 33.1829 8.95826 30.0389 8.95826C25.4872 8.95826 21.4478 11.1618 18.915 14.5694C18.703 14.5552 18.4893 14.5463 18.2738 14.5463C14.0277 14.5463 10.4263 17.3154 9.1475 21.1569C4.03239 21.5322 0 25.8272 0 31.0738C0 36.3203 3.76921 40.3291 8.64058 40.9444C10.1313 43.3365 12.5776 46.0327 16.988 47.1336C20.6353 48.0442 24.9362 47.1336 27.2323 45.4707C30.6341 47.9979 35.4349 47.7454 38.7272 45.38C38.7943 45.5454 38.8632 45.709 38.9409 45.8726C40.4352 49.0348 43.5244 51 47.0004 51C49.7893 51 52.4564 49.659 54.1326 47.4146C55.1482 46.054 56.9586 43.79 59.4208 40.8057C61.0917 43.212 63.8099 44.6419 66.7349 44.6419H66.9345C70.52 44.6419 73.7434 42.4917 75.1476 39.1659C76.3222 36.3808 76.006 33.176 74.2998 30.5936C73.3619 29.1744 72.2156 27.4492 71.2459 25.9944V25.9909ZM26.9214 32.3401C26.9214 32.5517 26.7519 32.7225 26.5417 32.7225H25.2894C24.8249 32.7225 24.4469 32.3436 24.4469 31.8741V26.8588C24.4469 26.4284 24.1625 26.03 23.7439 25.9464C23.1787 25.8326 22.6806 26.2701 22.6806 26.825V31.8741C22.6806 32.3419 22.3044 32.7225 21.8381 32.7225H21.227C20.7625 32.7225 20.3845 32.3436 20.3845 31.8741V26.8588C20.3845 26.4284 20.1001 26.03 19.6815 25.9464C19.1163 25.8326 18.6182 26.2701 18.6182 26.825V31.8741C18.6182 32.3419 18.242 32.7225 17.7757 32.7225H16.7001C16.4899 32.7225 16.3203 32.5517 16.3203 32.3401V26.7094C16.3203 24.9558 17.6503 23.5028 19.3495 23.4014C20.1796 23.3516 20.9886 23.6255 21.6191 24.1572C22.8997 23.0688 24.8885 23.0759 26.4816 24.6445C26.7642 24.9238 26.9197 25.3097 26.9197 25.7081V32.3383L26.9214 32.3401ZM33.3507 30.3606C33.8735 30.3766 34.368 30.2183 34.7813 29.9035C35.2671 29.5336 35.9612 29.5852 36.3957 30.0209L36.6342 30.261C36.8867 30.5153 37.0174 30.8657 36.9945 31.2232C36.9715 31.5789 36.7984 31.9097 36.5193 32.1267C35.6256 32.822 34.5553 33.1902 33.4231 33.1902C32.0277 33.1902 30.6783 32.6015 29.721 31.5771C28.7513 30.5385 28.2656 29.1779 28.3557 27.748C28.5182 25.1319 30.6889 23.0297 33.2941 22.9657C34.4581 22.9372 35.6027 23.3142 36.5211 24.0274C36.8002 24.2444 36.9733 24.5734 36.9962 24.9291C37.0192 25.2884 36.8885 25.6387 36.6359 25.8931L36.3957 26.1349C35.9612 26.5724 35.2688 26.6258 34.7884 26.2576C34.3928 25.9553 33.9212 25.7952 33.4231 25.7952C32.7978 25.7952 32.215 26.046 31.7822 26.5031C31.3512 26.9584 31.1287 27.5577 31.1587 28.1891C31.2152 29.3682 32.1761 30.3197 33.3489 30.3571L33.3507 30.3606ZM71.4455 37.4728C70.6949 39.3509 68.9056 40.5478 66.9327 40.5478H66.7437C65.1117 40.5478 63.5998 39.7315 62.6954 38.3656C62.3333 37.8178 61.8706 37.126 61.3743 36.3861C60.9521 35.7548 60.2739 35.4329 59.5921 35.4329C58.9863 35.4329 58.3804 35.6872 57.9477 36.2065C55.4414 39.2228 52.4617 42.8581 50.8968 44.9531C49.9836 46.1767 48.53 46.9059 47.011 46.9059C45.1758 46.9059 43.5297 45.8904 42.6907 44.2524C42.666 44.2044 42.6412 44.1599 42.6183 44.1101C42.5335 43.9323 42.4646 43.7509 42.4045 43.5659C42.2915 43.2209 42.2173 42.867 42.1838 42.5095C42.182 42.4899 42.1802 42.4704 42.1785 42.4526C42.1149 41.6736 42.2385 40.8822 42.5317 40.1512C42.5741 40.0463 42.62 39.9413 42.6695 39.8382C42.8179 39.5305 42.9962 39.2335 43.2064 38.9561C43.8847 38.0561 44.6548 37.0531 45.4708 36.002C45.5732 35.8704 45.6757 35.7388 45.7781 35.6054C45.9848 35.3404 46.1932 35.0718 46.4034 34.8033C46.6136 34.5347 46.8255 34.2626 47.0392 33.9905C47.3589 33.5815 47.6822 33.1724 48.0036 32.7634C48.1114 32.6264 48.2191 32.4912 48.3251 32.3543C49.5049 30.8586 50.6742 29.3896 51.711 28.0913C51.8046 27.9739 51.8982 27.8565 51.9901 27.7409C52.1738 27.5115 52.3539 27.2874 52.527 27.0704C52.6136 26.9619 52.7001 26.8552 52.7831 26.7503C53.2618 26.1545 53.3784 25.3666 53.1382 24.6766C53.0587 24.4471 52.9368 24.2266 52.7778 24.0292C50.1903 20.8261 46.2462 15.9104 43.5562 12.3836C43.4696 12.2698 43.3831 12.1578 43.3 12.0475C43.2329 11.9586 43.1693 11.8696 43.1093 11.7772C43.0846 11.7398 43.0616 11.7007 43.0386 11.6633C43.0051 11.61 42.9698 11.5549 42.938 11.4997C42.9079 11.4481 42.8814 11.3966 42.8532 11.345C42.8302 11.3023 42.8073 11.2596 42.7861 11.2169C42.756 11.1565 42.7278 11.0942 42.6995 11.032C42.6836 10.9982 42.6695 10.9644 42.6554 10.9306C42.6253 10.8612 42.5988 10.7901 42.5723 10.719C42.5635 10.6941 42.5529 10.6674 42.5441 10.6407C42.5158 10.5625 42.4911 10.4842 42.4664 10.4042C42.4611 10.3864 42.4558 10.3686 42.4505 10.3508C42.4257 10.2637 42.4028 10.1765 42.3816 10.0894C42.3798 10.0805 42.3781 10.0698 42.3745 10.0609C42.3533 9.96666 42.3339 9.87062 42.318 9.77636C42.1537 8.80887 42.2703 7.79868 42.7013 6.88276C43.5138 5.1594 45.2059 4.08519 47.0958 4.08519H47.1152C48.643 4.08519 50.1019 4.81971 51.0169 6.04865C52.6701 8.2682 55.8953 12.1916 58.5094 15.3288C58.9403 15.8464 59.5497 16.1042 60.1591 16.1042C60.8055 16.1042 61.4502 15.8143 61.8794 15.2417C62.3439 14.6228 62.7696 14.0465 63.1052 13.5823C64.0201 12.3125 65.4967 11.5549 67.0546 11.5549H67.0669C68.3757 11.5549 69.6492 12.0599 70.5518 13.015C72.2403 14.8024 72.3675 17.3936 71.0393 19.2771C69.8665 20.94 68.374 23.0155 67.1747 24.673C66.6448 25.4057 66.6271 26.3946 67.1288 27.1469C68.2945 28.8951 69.764 31.104 70.9209 32.8541C71.8217 34.2182 72.0531 35.9504 71.4455 37.4692V37.4728Z" fill="#202D69"/>
</svg>
