<svg width="140" height="97" viewBox="0 0 140 97" fill="none" xmlns="http://www.w3.org/2000/svg">
<path d="M131.242 49.6623C133.061 47.0679 135.205 43.999 136.966 41.4382C141.381 35.0076 140.938 26.3393 135.895 20.3563C132.821 16.7086 128.317 14.6189 123.541 14.6189H123.525C118.53 14.6189 113.783 16.9846 110.67 20.9889C105.656 14.7636 101.992 10.0728 99.9847 7.30674C96.8872 3.03653 91.9547 0.48584 86.7944 0.48584H86.7423C80.3326 0.48584 74.642 4.20756 71.8894 10.1973C70.0901 14.1142 69.8494 18.5089 71.0727 22.5503C70.9686 22.6311 70.8645 22.7051 70.7604 22.7859C66.4721 19.4276 61.1263 17.4355 55.3348 17.4355C46.9502 17.4355 39.5091 21.6047 34.8433 28.0521C34.4529 28.0252 34.0592 28.0084 33.6623 28.0084C25.8405 28.0084 19.2063 33.2477 16.8507 40.5162C7.42808 41.2262 0 49.3527 0 59.2795C0 69.2064 6.94329 76.7911 15.9169 77.9554C18.6629 82.4814 23.1692 87.5828 31.2936 89.6657C38.0124 91.3886 45.935 89.6657 50.1648 86.5194C56.4313 91.3011 65.2747 90.8233 71.3395 86.3478C71.4632 86.6607 71.5901 86.9703 71.7332 87.2799C74.4858 93.2629 80.1765 96.9813 86.5796 96.9813C91.7172 96.9813 96.6302 94.444 99.7179 90.1974C101.589 87.6231 104.924 83.3395 109.459 77.693C112.537 82.2458 117.545 84.9513 122.933 84.9513H123.3C129.905 84.9513 135.843 80.883 138.43 74.5904C140.593 69.3208 140.011 63.257 136.868 58.371C135.14 55.6857 133.029 52.4216 131.242 49.669V49.6623ZM49.5921 61.6754C49.5921 62.0759 49.2798 62.3989 48.8926 62.3989H46.5858C45.7301 62.3989 45.0338 61.6822 45.0338 60.7938V51.3044C45.0338 50.4901 44.5099 49.7363 43.7388 49.5782C42.6977 49.3628 41.7801 50.1906 41.7801 51.2405V60.7938C41.7801 61.6788 41.0871 62.3989 40.2281 62.3989H39.1024C38.2467 62.3989 37.5504 61.6822 37.5504 60.7938V51.3044C37.5504 50.4901 37.0265 49.7363 36.2554 49.5782C35.2143 49.3628 34.2967 50.1906 34.2967 51.2405V60.7938C34.2967 61.6788 33.6037 62.3989 32.7447 62.3989H30.7633C30.3761 62.3989 30.0637 62.0759 30.0637 61.6754V51.0218C30.0637 47.7039 32.5137 44.9546 35.6437 44.7628C37.173 44.6686 38.6631 45.1868 39.8247 46.193C42.1836 44.1336 45.8472 44.147 48.782 47.115C49.3026 47.6433 49.5889 48.3735 49.5889 49.1273V61.6721L49.5921 61.6754ZM61.4354 57.9302C62.3985 57.9605 63.3095 57.661 64.0709 57.0654C64.9656 56.3654 66.2443 56.463 67.0447 57.2874L67.484 57.7417C67.9492 58.2229 68.19 58.8858 68.1477 59.5622C68.1054 60.2352 67.7866 60.8611 67.2725 61.2716C65.6261 62.5874 63.6544 63.2839 61.5688 63.2839C58.9984 63.2839 56.5127 62.1701 54.7492 60.2318C52.9629 58.2667 52.0682 55.6924 52.2341 52.9869C52.5334 48.037 56.5322 44.0595 61.3313 43.9384C63.4755 43.8846 65.5838 44.5979 67.2757 45.9473C67.7898 46.3578 68.1087 46.9804 68.151 47.6534C68.1933 48.3331 67.9525 48.996 67.4872 49.4772L67.0447 49.9349C66.2443 50.7627 64.9689 50.8636 64.0839 50.1671C63.3551 49.595 62.4864 49.2922 61.5688 49.2922C60.417 49.2922 59.3433 49.7666 58.5462 50.6314C57.7523 51.4929 57.3423 52.6269 57.3976 53.8215C57.5018 56.0525 59.2717 57.8528 61.4322 57.9234L61.4354 57.9302ZM131.61 71.3869C130.227 74.9404 126.931 77.205 123.297 77.205H122.949C119.943 77.205 117.157 75.6605 115.492 73.0761C114.825 72.0397 113.972 70.7307 113.058 69.3309C112.28 68.1363 111.031 67.5272 109.775 67.5272C108.659 67.5272 107.543 68.0084 106.746 68.991C102.129 74.6981 96.6399 81.5762 93.7572 85.5402C92.0751 87.8553 89.3973 89.235 86.5992 89.235C83.2186 89.235 80.1862 87.3136 78.6407 84.2144C78.5952 84.1235 78.5496 84.0394 78.5073 83.9452C78.3512 83.6087 78.2243 83.2654 78.1136 82.9155C77.9054 82.2627 77.7688 81.593 77.7069 80.9166C77.7037 80.8796 77.7004 80.8426 77.6972 80.809C77.58 79.3351 77.8078 77.8377 78.3479 76.4546C78.426 76.2561 78.5106 76.0575 78.6017 75.8624C78.875 75.2802 79.2036 74.7183 79.5908 74.1933C80.8402 72.4906 82.2588 70.5928 83.762 68.604C83.9507 68.355 84.1394 68.106 84.3281 67.8536C84.7088 67.3522 85.0927 66.8441 85.4799 66.336C85.8671 65.8279 86.2575 65.313 86.6512 64.7982C87.2401 64.0242 87.8355 63.2503 88.4277 62.4763C88.6262 62.2172 88.8247 61.9615 89.0199 61.7024C91.1933 58.8724 93.3472 56.0929 95.2571 53.6364C95.4296 53.4143 95.602 53.1922 95.7712 52.9735C96.1096 52.5394 96.4415 52.1154 96.7603 51.7049C96.9197 51.4996 97.0792 51.2977 97.2321 51.0992C98.1138 49.9719 98.3286 48.4812 97.8861 47.1755C97.7397 46.7415 97.5152 46.3242 97.2223 45.9507C92.4557 39.8903 85.1903 30.5893 80.235 23.9165C80.0756 23.7011 79.9162 23.4891 79.7632 23.2805C79.6396 23.1123 79.5225 22.944 79.4118 22.769C79.3663 22.6984 79.324 22.6243 79.2817 22.5537C79.2199 22.4527 79.1548 22.3484 79.0962 22.2441C79.0409 22.1465 78.9921 22.0489 78.9401 21.9513C78.8978 21.8706 78.8555 21.7898 78.8164 21.709C78.7611 21.5946 78.7091 21.4769 78.657 21.3591C78.6277 21.2951 78.6017 21.2312 78.5757 21.1673C78.5203 21.036 78.4715 20.9014 78.4227 20.7668C78.4065 20.7197 78.3869 20.6693 78.3707 20.6188C78.3186 20.4707 78.2731 20.3227 78.2275 20.1712C78.2178 20.1376 78.208 20.1039 78.1982 20.0703C78.1527 19.9054 78.1104 19.7405 78.0713 19.5756C78.0681 19.5588 78.0648 19.5386 78.0583 19.5218C78.0193 19.3434 77.9835 19.1617 77.9542 18.9834C77.6516 17.1528 77.8664 15.2415 78.6602 13.5085C80.1569 10.2478 83.2739 8.2153 86.7553 8.2153H86.7911C89.6055 8.2153 92.293 9.60506 93.9784 11.9303C97.0238 16.1298 102.965 23.5531 107.78 29.489C108.574 30.4682 109.697 30.9561 110.819 30.9561C112.01 30.9561 113.198 30.4076 113.988 29.3241C114.844 28.1531 115.628 27.0628 116.246 26.1845C117.932 23.7819 120.652 22.3484 123.522 22.3484H123.544C125.955 22.3484 128.301 23.3041 129.964 25.1111C133.074 28.4929 133.309 33.3958 130.862 36.9593C128.701 40.1056 125.952 44.0326 123.743 47.1688C122.767 48.5552 122.734 50.4262 123.658 51.8496C125.806 55.1574 128.513 59.3368 130.644 62.6479C132.303 65.2289 132.729 68.5064 131.61 71.3802V71.3869Z" fill="#E9ECF6"/>
</svg>
